<svg id="图层_1" data-name="图层 1" xmlns="http://www.w3.org/2000/svg" viewBox="0 0 833.6 834.16"><defs><style>.cls-1{fill:#4b5f64;}</style></defs><title>锤科LOGO</title><path class="cls-1" d="M1439.32,536.17c-2.53,100.61-40.45,197.52-117.45,277.49C1247.13,891.3,1155,934.93,1047.2,941.49,934.44,948.36,834.64,913,749.64,839c-87.2-75.89-135.64-172.78-143-288-7.6-119.07,31.7-223.08,113-309.86s183.28-129.31,301.79-133C1251.53,111.32,1437,294.14,1439.32,536.17ZM1058.79,608h.21V548q0-77.25,0-154.5c0-6.23.56-12.32,2.91-18.12,7.63-18.81,24.18-28.65,46-26.92,44,3.5,88,7.23,132,10.8,3.32.27,7.48,1.78,9.11-2.74s-2.6-6-5.3-7.89a517.31,517.31,0,0,0-137.39-67.81A509.31,509.31,0,0,0,974,256.78c-34.17-1.59-68.29-.49-102.19,4.74-6.07.93-10,3.7-11.56,9.94a121.51,121.51,0,0,0-.13,60.32c1.93,7.65,5.1,10,13,10.55,25.76,1.7,51.53,3.48,77.3,5.16a42.18,42.18,0,0,1,20.28,6.32c15,9.52,21.23,23.49,21.28,40.95q.3,100.74-1.71,201.44c-.41,20.65-.54,41.31-1,62-.79,37.8-2.53,75.61-2.32,113.41.17,33.35,16.57,57.5,46.72,72,3.93,1.89,8,3.11,12.53,1.62,8.57-2.82,12.6-8.69,12.6-19.25Q1058.81,717,1058.79,608Z" transform="translate(-605.72 -108.17)"/></svg>